<svg xmlns="http://www.w3.org/2000/svg" width="1200" height="800" viewBox="0 0 1200 800">
  <defs>
    <filter id="softGlow" x="-50%" y="-50%" width="200%" height="200%">
      <feGaussianBlur stdDeviation="2" result="blur"/>
      <feMerge>
        <feMergeNode in="blur"/>
        <feMergeNode in="SourceGraphic"/>
      </feMerge>
    </filter>

    <linearGradient id="parchment" x1="0" y1="0" x2="1" y2="1">
      <stop offset="0%" stop-color="#f2e6c9"/>
      <stop offset="100%" stop-color="#e1cfaa"/>
    </linearGradient>
  </defs>

  <rect x="0" y="0" width="1200" height="800" fill="url(#parchment)"/>
  <rect x="24" y="24" width="1152" height="752" fill="none" stroke="#7a5b2b" stroke-width="3" opacity="0.7"/>

  <g opacity="0.25">
    <circle cx="1040" cy="130" r="52" fill="none" stroke="#3a2a12" stroke-width="2"/>
    <path d="M1040 70 L1052 130 L1040 190 L1028 130 Z" fill="#3a2a12"/>
    <path d="M980 130 L1040 118 L1100 130 L1040 142 Z" fill="#3a2a12"/>
  </g>

  <path d="M720 760
           C690 650, 770 590, 720 500
           C670 410, 730 360, 690 290
           C650 220, 720 160, 670 60"
        fill="none" stroke="#2b4d66" stroke-width="16" opacity="0.35"/>
  <path d="M720 760
           C690 650, 770 590, 720 500
           C670 410, 730 360, 690 290
           C650 220, 720 160, 670 60"
        fill="none" stroke="#2b4d66" stroke-width="6" opacity="0.45"/>

  <g stroke="#5a3f1b" stroke-width="4" opacity="0.55" fill="none">
    <path d="M585 355 L525 360 L455 330 L360 310 L300 330 L185 320"/>
    <path d="M525 360 L510 392"/>
    <path d="M585 355 L540 430"/>
  </g>

  <g filter="url(#softGlow)">
    <circle cx="185" cy="320" r="18" fill="#3a2a12" opacity="0.85"/>
    <circle cx="185" cy="320" r="10" fill="#f2e6c9"/>

    <circle cx="300" cy="330" r="14" fill="#3a2a12" opacity="0.8"/>
    <circle cx="300" cy="330" r="8" fill="#f2e6c9"/>

    <circle cx="360" cy="310" r="14" fill="#3a2a12" opacity="0.8"/>
    <circle cx="360" cy="310" r="8" fill="#f2e6c9"/>

    <circle cx="455" cy="330" r="14" fill="#3a2a12" opacity="0.8"/>
    <circle cx="455" cy="330" r="8" fill="#f2e6c9"/>

    <circle cx="525" cy="360" r="14" fill="#3a2a12" opacity="0.8"/>
    <circle cx="525" cy="360" r="8" fill="#f2e6c9"/>

    <circle cx="510" cy="392" r="12" fill="#3a2a12" opacity="0.8"/>
    <circle cx="510" cy="392" r="7" fill="#f2e6c9"/>

    <circle cx="585" cy="355" r="16" fill="#3a2a12" opacity="0.85"/>
    <circle cx="585" cy="355" r="9" fill="#f2e6c9"/>

    <circle cx="540" cy="430" r="12" fill="#3a2a12" opacity="0.8"/>
    <circle cx="540" cy="430" r="7" fill="#f2e6c9"/>
  </g>

  <g font-family="serif" font-size="20" fill="#2a1c0b" opacity="0.85">
    <text x="120" y="290">Ashburn Data Dominion</text>
    <text x="260" y="370">Herndon Gate</text>
    <text x="330" y="285">Reston Node</text>
    <text x="420" y="300">Tysons Spires</text>
    <text x="495" y="345">Arlington Nexus</text>
    <text x="460" y="430">Pentagon Bastion</text>
    <text x="590" y="335">The Citadel (D.C.)</text>
    <text x="520" y="465">Alexandria Archives</text>
    <text x="740" y="470" transform="rotate(-72 740 470)">The Potomac Divide</text>
  </g>

  <text x="60" y="90" font-family="serif" font-size="44" fill="#2a1c0b" opacity="0.85">
    The Beltway Realms
  </text>
  <text x="62" y="120" font-family="serif" font-size="20" fill="#2a1c0b" opacity="0.65">
    A parchment chart of Northern Virginia & the Citadel of Washington
  </text>
</svg>
